{
  "asset": {
    "generator": "Blender 4.5.3 LTS",
    "version": "2.0"
  },
  "scene": 0,
  "scenes": [
    {
      "name": "Gate2BMap",
      "nodes": [0, 1]
    }
  ],
  "nodes": [
    {
      "mesh": 0,
      "name": "MapSurface"
    },
    {
      "name": "AnchorSpawnAlpha",
      "translation": [2.0, 0.0, 3.0]
    }
  ],
  "meshes": [
    {
      "name": "MapSurfaceMesh",
      "primitives": [
        {
          "attributes": {
            "POSITION": 0
          },
          "indices": 1,
          "material": 0,
          "mode": 4
        }
      ]
    }
  ],
  "materials": [
    {
      "name": "Concrete",
      "pbrMetallicRoughness": {
        "baseColorFactor": [0.42, 0.45, 0.48, 1.0],
        "metallicFactor": 0.0,
        "roughnessFactor": 0.85
      }
    }
  ],
  "buffers": [
    {
      "byteLength": 60,
      "uri": "data:application/octet-stream;base64,"
    }
  ],
  "bufferViews": [
    {
      "buffer": 0,
      "byteLength": 48,
      "byteOffset": 0,
      "target": 34962
    },
    {
      "buffer": 0,
      "byteLength": 12,
      "byteOffset": 48,
      "target": 34963
    }
  ],
  "accessors": [
    {
      "bufferView": 0,
      "byteOffset": 0,
      "componentType": 5126,
      "count": 4,
      "max": [1.0, 0.0, 1.0],
      "min": [-1.0, 0.0, -1.0],
      "type": "VEC3"
    },
    {
      "bufferView": 1,
      "byteOffset": 0,
      "componentType": 5123,
      "count": 6,
      "type": "SCALAR"
    }
  ]
}
